#!OML:ASF F:\VICON\USERDATA\INSTALL\rory3\rory3.ASF
:FULLY-SPECIFIED
:DEGREES
606
root -2.38465 15.2802 23.2347 -50.0519 -36.7269 25.3694
lowerback -14.714 -2.31646 2.01917
upperback -11.7697 -3.49977 3.84502
thorax -4.14881 -1.85934 2.54785
lowerneck -0.705832 -13.6617 -10.4927
upperneck 38.7407 -20.6452 -6.25434
head 13.822 -12.1717 -3.37611
rclavicle -3.81667e-014 -4.6118e-014
rhumerus -4.93641 62.4396 -113.978
rradius 48.9576
rwrist -18.1569
rhand -11.9971 -51.0392
rfingers 7.12502
rthumb -165.94 819.456
lclavicle -3.81667e-014 -4.6118e-014
lhumerus 34.952 5.21757 58.0822
lradius 26.4103
lwrist 44.0996
lhand -34.3123 -12.3784
lfingers 7.12502
lthumb -7.48106 17.4693
rfemur -47.4774 -10.7633 33.3955
rtibia 74.7681
rfoot -1.83638 -16.7107
rtoes 19.1388
lfemur -19.2915 34.6765 -17.8311
ltibia 112.414
lfoot -18.1663 -0.207531
ltoes -12.3066
607
root -2.39025 15.3268 23.277 -49.7469 -36.7921 25.1115
lowerback -14.8276 -2.25029 2.35058
upperback -11.6869 -3.45179 3.93433
thorax -4.01474 -1.85124 2.45303
lowerneck -0.449533 -13.7016 -10.7405
upperneck 38.2985 -20.8366 -5.70567
head 13.6868 -12.2069 -3.10449
rclavicle -4.45278e-014 3.97569e-014
rhumerus -1.12154 63.6919 -111.017
rradius 48.1291
rwrist -19.9917
rhand -12.164 -51.498
rfingers 7.12502
rthumb -166.101 818.986
lclavicle -4.45278e-014 3.97569e-014
lhumerus 35.4022 5.62384 58.543
lradius 25.9058
lwrist 43.3053
lhand -34.1812 -12.4856
lfingers 7.12502
lthumb -7.35449 17.3665
rfemur -47.6436 -10.4878 33.5175
rtibia 75.0251
rfoot -4.23003 -16.3246
rtoes 26.884
lfemur -19.3918 34.0042 -17.2552
ltibia 112.228
lfoot -18.2764 -0.71402
ltoes -9.86238
608
root -2.39065 15.2925 23.3651 -49.4778 -37.0231 24.7656
lowerback -14.7282 -2.15322 2.85629
upperback -11.5663 -3.37229 4.10957
thorax -3.95872 -1.83333 2.36389
lowerneck -0.868505 -13.7885 -10.291
upperneck 38.246 -20.7829 -6.0614
head 13.6267 -12.1511 -3.30678
rclavicle -5.40694e-014 -1.90833e-014
rhumerus -3.62482 62.6725 -112.799
rradius 48.6955
rwrist -18.7098
rhand -11.9003 -51.191
rfingers 7.12502
rthumb -165.847 819.311
lclavicle -5.40694e-014 -1.90833e-014
lhumerus 35.8853 5.90199 58.8992
lradius 25.4791
lwrist 42.7362
lhand -34.4215 -12.3504
lfingers 7.12502
lthumb -7.58638 17.4935
rfemur -47.5035 -10.4299 34.4074
rtibia 74.5331
rfoot -2.68264 -16.7558
rtoes 22.2245
lfemur -19.626 33.4436 -16.4537
ltibia 112.649
lfoot -18.4722 -0.779282
ltoes -9.67884
609
root -2.38817 15.3243 23.4116 -49.4916 -36.9291 24.7813
lowerback -14.5132 -2.1178 2.86303
upperback -11.4972 -3.31479 4.23606
thorax -3.99137 -1.79853 2.50634
lowerneck -1.20874 -13.8384 -9.89148
upperneck 38.3125 -20.611 -6.67779
head 13.5751 -12.0947 -3.58468
rclavicle -3.18055e-015 -1.43125e-014
rhumerus -3.68491 62.6199 -112.828
rradius 48.4119
rwrist -18.6912
rhand -12.2137 -50.8844
rfingers 7.12502
rthumb -166.149 819.597
lclavicle -3.18055e-015 -1.43125e-014
lhumerus 36.1246 6.04197 59.1778
lradius 25.3339
lwrist 42.5487
lhand -34.7053 -12.7873
lfingers 7.12502
lthumb -7.8603 17.0466
rfemur -47.4386 -10.2065 34.3126
rtibia 74.6141
rfoot -4.2065 -16.6578
rtoes 26.7416
lfemur -19.3285 32.8706 -16.2456
ltibia 112.361
lfoot -18.5674 -0.22133
ltoes -10.3597
610
root -2.38831 15.3013 23.4879 -49.3781 -36.7022 24.9028
lowerback -14.5318 -2.1372 2.69224
upperback -11.5056 -3.32296 4.38457
thorax -3.97214 -1.78682 2.7568
lowerneck -0.997449 -13.8006 -10.1498
upperneck 38.0157 -20.4975 -6.65268
head 13.4391 -12.0736 -3.47761
rclavicle -6.99722e-014 6.83819e-014
rhumerus -4.01204 62.7216 -113.071
rradius 48.6799
rwrist -18.6943
rhand -12.583 -51.1021
rfingers 7.12502
rthumb -166.505 819.355
lclavicle -6.99722e-014 6.83819e-014
lhumerus 36.073 6.29735 59.4811
lradius 25.3884
lwrist 42.3522
lhand -34.6766 -13.8726
lfingers 7.12502
lthumb -7.83264 15.9623
rfemur -47.761 -10.0477 34.37
rtibia 74.5401
rfoot -3.74861 -16.8008
rtoes 25.906
lfemur -19.6227 32.2154 -16.4661
ltibia 112.52
lfoot -18.7472 0.48125
ltoes -11.3523
611
root -2.38406 15.2809 23.5676 -49.2344 -36.5857 24.863
lowerback -14.4873 -2.14711 2.84425
upperback -11.457 -3.34704 4.56779
thorax -3.94133 -1.79971 2.86258
lowerneck -0.639964 -13.8663 -10.4494
upperneck 37.365 -20.539 -6.5576
head 13.1365 -12.1125 -3.30725
rclavicle 2.8625e-014 1.1291e-013
rhumerus -4.07483 62.7659 -113.115
rradius 48.6649
rwrist -18.5748
rhand -12.5369 -51.3792
rfingers 7.12502
rthumb -166.46 819.081
lclavicle 2.8625e-014 1.1291e-013
lhumerus 36.112 6.52453 59.5322
lradius 25.3118
lwrist 42.1924
lhand -34.8119 -14.1247
lfingers 7.12502
lthumb -7.96319 15.7053
rfemur -47.7887 -10.0011 34.6426
rtibia 74.3295
rfoot -2.77036 -17.0053
rtoes 23.4872
lfemur -19.8833 31.585 -16.3544
ltibia 112.687
lfoot -18.7065 0.977885
ltoes -12.6772
612
root -2.37687 15.2873 23.6381 -49.47 -36.1232 25.0827
lowerback -14.2375 -2.16263 2.6908
upperback -11.3183 -3.33567 4.50519
thorax -3.91611 -1.783 2.88728
lowerneck -0.467614 -14.1125 -9.99623
upperneck 36.7192 -20.7245 -6.9996
head 12.6985 -12.1876 -3.43546
rclavicle 9.22361e-014 -8.11041e-014
rhumerus -4.05745 62.3047 -113.225
rradius 48.5163
rwrist -17.9725
rhand -12.557 -51.2607
rfingers 7.12502
rthumb -166.48 819.198
lclavicle 9.22361e-014 -8.11041e-014
lhumerus 36.3995 6.70735 59.6752
lradius 25.1038
lwrist 41.8327
lhand -35.0162 -13.4878
lfingers 7.12502
lthumb -8.16039 16.3347
rfemur -47.7839 -10.1827 34.2895
rtibia 74.4233
rfoot -2.91196 -16.9893
rtoes 24.2965
lfemur -19.7325 30.7225 -16.7733
ltibia 112.506
lfoot -18.6524 1.10067
ltoes -11.3231
613
root -2.3739 15.291 23.7058 -49.9107 -35.1176 25.8406
lowerback -14.1765 -2.26236 1.71737
upperback -11.1948 -3.36419 4.31483
thorax -3.76443 -1.7437 3.22236
lowerneck -0.672125 -14.1803 -9.71883
upperneck 36.6297 -20.6511 -7.40899
head 12.6031 -12.1633 -3.60465
rclavicle 1.90833e-014 -4.77083e-015
rhumerus -3.99427 61.9104 -113.254
rradius 48.4261
rwrist -17.6411
rhand -12.3621 -50.8031
rfingers 7.12502
rthumb -166.292 819.668
lclavicle 1.90833e-014 -4.77083e-015
lhumerus 36.6554 6.94872 59.8672
lradius 25.0591
lwrist 41.727
lhand -35.1475 -12.3149
lfingers 7.12502
lthumb -8.28715 17.5026
rfemur -48.0267 -10.4682 33.2264
rtibia 74.5717
rfoot -2.81751 -16.9174
rtoes 24.4085
lfemur -19.8116 29.6422 -18.3867
ltibia 112.166
lfoot -18.4648 1.53756
ltoes -9.76691
614
root -2.37192 15.2852 23.7662 -49.8376 -34.7951 25.9807
lowerback -14.1886 -2.29407 1.50841
upperback -11.1518 -3.38396 4.42337
thorax -3.69234 -1.73688 3.44891
lowerneck -0.834535 -14.0756 -9.97656
upperneck 36.6782 -20.4514 -7.3314
head 12.7005 -12.0856 -3.55216
rclavicle 1.90833e-014 5.24792e-014
rhumerus -3.87548 61.8421 -113.089
rradius 48.4947
rwrist -17.9459
rhand -12.177 -50.7742
rfingers 7.12502
rthumb -166.114 819.709
lclavicle 1.90833e-014 5.24792e-014
lhumerus 36.9337 7.08609 59.859
lradius 24.8697
lwrist 41.8922
lhand -35.4133 -11.9676
lfingers 7.12502
lthumb -8.54364 17.8396
rfemur -48.3283 -10.4908 33.1618
rtibia 74.6996
rfoot -2.56889 -17.0237
rtoes 23.6749
lfemur -19.9535 28.9569 -18.7229
ltibia 112.03
lfoot -18.5863 1.8665
ltoes -8.81299
615
root -2.36415 15.2717 23.8357 -49.6621 -34.838 25.7
lowerback -13.9323 -2.26809 1.78852
upperback -11.1169 -3.36474 4.67179
thorax -3.79444 -1.73284 3.56722
lowerneck -0.806496 -14.0317 -10.2024
upperneck 36.4583 -20.3614 -7.1877
head 12.6507 -12.0444 -3.44229
rclavicle 1.59028e-014 1.59028e-014
rhumerus -3.79886 61.8284 -112.851
rradius 48.4997
rwrist -18.1487
rhand -12.2531 -50.8889
rfingers 7.12502
rthumb -166.187 819.59
lclavicle 1.59028e-014 1.59028e-014
lhumerus 37.1301 7.5473 60.4514
lradius 24.6306
lwrist 41.2037
lhand -35.7732 -11.7519
lfingers 7.12502
lthumb -8.89094 18.0408
rfemur -48.2143 -10.5715 33.6676
rtibia 74.4219
rfoot -1.77875 -17.2284
rtoes 21.1887
lfemur -19.858 28.3865 -18.2317
ltibia 112.1
lfoot -18.9394 2.01976
ltoes -7.90445
616
root -2.35607 15.2936 23.8897 -49.7334 -34.4847 25.8596
lowerback -13.8358 -2.23114 1.75762
upperback -11.0053 -3.30828 4.66636
thorax -3.72543 -1.70131 3.58351
lowerneck -0.676383 -13.9936 -10.4744
upperneck 36.1178 -20.3219 -6.89742
head 12.5558 -12.0115 -3.26039
rclavicle 8.26944e-014 1.01778e-013
rhumerus -3.48918 61.8746 -112.47
rradius 48.4268
rwrist -18.2064
rhand -12.4173 -50.9267
rfingers 7.12502
rthumb -166.345 819.541
lclavicle 8.26944e-014 1.01778e-013
lhumerus 37.1502 8.40934 61.5782
lradius 24.6834
lwrist 39.9296
lhand -35.7273 -11.0651
lfingers 7.12502
lthumb -8.84668 18.7295
rfemur -48.453 -10.628 33.2735
rtibia 74.6844
rfoot -3.15001 -17.1083
rtoes 26.1161
lfemur -19.7247 27.7052 -18.5464
ltibia 111.857
lfoot -18.8094 2.19088
ltoes -7.33738
